<?xml version="1.0" encoding="UTF-8"?>
<svg id="Layer_1" data-name="Layer 1" xmlns="http://www.w3.org/2000/svg" xmlns:xlink="http://www.w3.org/1999/xlink" viewBox="0 0 758.92 24.19">
  <defs>
    <style>
      .cls-1 {
        fill: url(#_É_πÌÚ_·ÂÁ_Ì_Á_Ë_8);
      }

      .cls-2 {
        fill: url(#linear-gradient-8);
      }

      .cls-3 {
        fill: url(#linear-gradient-7);
      }

      .cls-4 {
        fill: url(#linear-gradient-5);
      }

      .cls-5 {
        fill: url(#linear-gradient-6);
      }

      .cls-6 {
        fill: url(#linear-gradient-9);
      }

      .cls-7 {
        fill: url(#linear-gradient-4);
      }

      .cls-8 {
        fill: url(#linear-gradient-3);
      }

      .cls-9 {
        fill: url(#linear-gradient-2);
      }

      .cls-10 {
        fill: url(#linear-gradient);
      }

      .cls-11 {
        fill: url(#linear-gradient-43);
      }

      .cls-12 {
        fill: url(#linear-gradient-40);
      }

      .cls-13 {
        fill: url(#linear-gradient-41);
      }

      .cls-14 {
        fill: url(#linear-gradient-42);
      }

      .cls-15 {
        fill: url(#linear-gradient-49);
      }

      .cls-16 {
        fill: url(#linear-gradient-48);
      }

      .cls-17 {
        fill: url(#linear-gradient-45);
      }

      .cls-18 {
        fill: url(#linear-gradient-47);
      }

      .cls-19 {
        fill: url(#linear-gradient-44);
      }

      .cls-20 {
        fill: url(#linear-gradient-46);
      }

      .cls-21 {
        fill: url(#linear-gradient-10);
      }

      .cls-22 {
        fill: url(#linear-gradient-11);
      }

      .cls-23 {
        fill: url(#linear-gradient-12);
      }

      .cls-24 {
        fill: url(#linear-gradient-13);
      }

      .cls-25 {
        fill: url(#linear-gradient-19);
      }

      .cls-26 {
        fill: url(#linear-gradient-14);
      }

      .cls-27 {
        fill: url(#linear-gradient-21);
      }

      .cls-28 {
        fill: url(#linear-gradient-20);
      }

      .cls-29 {
        fill: url(#linear-gradient-22);
      }

      .cls-30 {
        fill: url(#linear-gradient-23);
      }

      .cls-31 {
        fill: url(#linear-gradient-28);
      }

      .cls-32 {
        fill: url(#linear-gradient-25);
      }

      .cls-33 {
        fill: url(#linear-gradient-32);
      }

      .cls-34 {
        fill: url(#linear-gradient-31);
      }

      .cls-35 {
        fill: url(#linear-gradient-33);
      }

      .cls-36 {
        fill: url(#linear-gradient-30);
      }

      .cls-37 {
        fill: url(#linear-gradient-15);
      }

      .cls-38 {
        fill: url(#linear-gradient-16);
      }

      .cls-39 {
        fill: url(#linear-gradient-17);
      }

      .cls-40 {
        fill: url(#linear-gradient-18);
      }

      .cls-41 {
        fill: url(#linear-gradient-35);
      }

      .cls-42 {
        fill: url(#linear-gradient-34);
      }

      .cls-43 {
        fill: url(#linear-gradient-36);
      }

      .cls-44 {
        fill: url(#linear-gradient-38);
      }

      .cls-45 {
        fill: url(#linear-gradient-27);
      }

      .cls-46 {
        fill: url(#linear-gradient-24);
      }

      .cls-47 {
        fill: url(#linear-gradient-26);
      }

      .cls-48 {
        fill: url(#linear-gradient-29);
      }

      .cls-49 {
        fill: url(#linear-gradient-37);
      }

      .cls-50 {
        fill: url(#linear-gradient-39);
      }

      .cls-51 {
        fill: url(#linear-gradient-57);
      }

      .cls-52 {
        fill: url(#linear-gradient-58);
      }

      .cls-53 {
        fill: url(#linear-gradient-59);
      }

      .cls-54 {
        fill: url(#linear-gradient-53);
      }

      .cls-55 {
        fill: url(#linear-gradient-54);
      }

      .cls-56 {
        fill: url(#linear-gradient-55);
      }

      .cls-57 {
        fill: url(#linear-gradient-56);
      }

      .cls-58 {
        fill: url(#linear-gradient-50);
      }

      .cls-59 {
        fill: url(#linear-gradient-51);
      }

      .cls-60 {
        fill: url(#linear-gradient-52);
      }

      .cls-61 {
        fill: url(#linear-gradient-60);
      }

      .cls-62 {
        fill: url(#_É_πÌÚ_·ÂÁ_Ì_Á_Ë_8-8);
      }

      .cls-63 {
        fill: url(#_É_πÌÚ_·ÂÁ_Ì_Á_Ë_8-7);
      }

      .cls-64 {
        fill: url(#_É_πÌÚ_·ÂÁ_Ì_Á_Ë_8-5);
      }

      .cls-65 {
        fill: url(#_É_πÌÚ_·ÂÁ_Ì_Á_Ë_8-6);
      }

      .cls-66 {
        fill: url(#_É_πÌÚ_·ÂÁ_Ì_Á_Ë_8-3);
      }

      .cls-67 {
        fill: url(#_É_πÌÚ_·ÂÁ_Ì_Á_Ë_8-4);
      }

      .cls-68 {
        fill: url(#_É_πÌÚ_·ÂÁ_Ì_Á_Ë_8-2);
      }

      .cls-69 {
        fill: url(#_É_πÌÚ_·ÂÁ_Ì_Á_Ë_8-9);
      }

      .cls-70 {
        fill: url(#_É_πÌÚ_·ÂÁ_Ì_Á_Ë_8-30);
      }

      .cls-71 {
        fill: url(#_É_πÌÚ_·ÂÁ_Ì_Á_Ë_8-10);
      }

      .cls-72 {
        fill: url(#_É_πÌÚ_·ÂÁ_Ì_Á_Ë_8-19);
      }

      .cls-73 {
        fill: url(#_É_πÌÚ_·ÂÁ_Ì_Á_Ë_8-12);
      }

      .cls-74 {
        fill: url(#_É_πÌÚ_·ÂÁ_Ì_Á_Ë_8-13);
      }

      .cls-75 {
        fill: url(#_É_πÌÚ_·ÂÁ_Ì_Á_Ë_8-14);
      }

      .cls-76 {
        fill: url(#_É_πÌÚ_·ÂÁ_Ì_Á_Ë_8-11);
      }

      .cls-77 {
        fill: url(#_É_πÌÚ_·ÂÁ_Ì_Á_Ë_8-17);
      }

      .cls-78 {
        fill: url(#_É_πÌÚ_·ÂÁ_Ì_Á_Ë_8-18);
      }

      .cls-79 {
        fill: url(#_É_πÌÚ_·ÂÁ_Ì_Á_Ë_8-15);
      }

      .cls-80 {
        fill: url(#_É_πÌÚ_·ÂÁ_Ì_Á_Ë_8-16);
      }

      .cls-81 {
        fill: url(#_É_πÌÚ_·ÂÁ_Ì_Á_Ë_8-20);
      }

      .cls-82 {
        fill: url(#_É_πÌÚ_·ÂÁ_Ì_Á_Ë_8-29);
      }

      .cls-83 {
        fill: url(#_É_πÌÚ_·ÂÁ_Ì_Á_Ë_8-23);
      }

      .cls-84 {
        fill: url(#_É_πÌÚ_·ÂÁ_Ì_Á_Ë_8-24);
      }

      .cls-85 {
        fill: url(#_É_πÌÚ_·ÂÁ_Ì_Á_Ë_8-21);
      }

      .cls-86 {
        fill: url(#_É_πÌÚ_·ÂÁ_Ì_Á_Ë_8-22);
      }

      .cls-87 {
        fill: url(#_É_πÌÚ_·ÂÁ_Ì_Á_Ë_8-27);
      }

      .cls-88 {
        fill: url(#_É_πÌÚ_·ÂÁ_Ì_Á_Ë_8-28);
      }

      .cls-89 {
        fill: url(#_É_πÌÚ_·ÂÁ_Ì_Á_Ë_8-25);
      }

      .cls-90 {
        fill: url(#_É_πÌÚ_·ÂÁ_Ì_Á_Ë_8-26);
      }
    </style>
    <radialGradient id="_É_πÌÚ_·ÂÁ_Ì_Á_Ë_8" data-name="É‡‰¥πÌÚ ·ÂÁ Ì‡Á‚Ë 8" cx="512.68" cy="-841.31" fx="512.68" fy="-841.31" r="10.25" gradientTransform="translate(437.79 282.49) rotate(-90) scale(.51)" gradientUnits="userSpaceOnUse">
      <stop offset="0" stop-color="#828281"/>
      <stop offset="1" stop-color="#333"/>
    </radialGradient>
    <radialGradient id="_É_πÌÚ_·ÂÁ_Ì_Á_Ë_8-2" data-name="É‡‰¥πÌÚ ·ÂÁ Ì‡Á‚Ë 8" cy="-791" fy="-791" r="10.25" xlink:href="#_É_πÌÚ_·ÂÁ_Ì_Á_Ë_8"/>
    <radialGradient id="_É_πÌÚ_·ÂÁ_Ì_Á_Ë_8-3" data-name="É‡‰¥πÌÚ ·ÂÁ Ì‡Á‚Ë 8" cy="-740.68" fy="-740.68" r="10.25" gradientTransform="translate(-77.78 461.98) rotate(-17.77) scale(.51)" xlink:href="#_É_πÌÚ_·ÂÁ_Ì_Á_Ë_8"/>
    <radialGradient id="_É_πÌÚ_·ÂÁ_Ì_Á_Ë_8-4" data-name="É‡‰¥πÌÚ ·ÂÁ Ì‡Á‚Ë 8" cy="-690.37" fy="-690.37" r="10.25" xlink:href="#_É_πÌÚ_·ÂÁ_Ì_Á_Ë_8"/>
    <radialGradient id="_É_πÌÚ_·ÂÁ_Ì_Á_Ë_8-5" data-name="É‡‰¥πÌÚ ·ÂÁ Ì‡Á‚Ë 8" cy="-640.05" fy="-640.05" r="10.25" xlink:href="#_É_πÌÚ_·ÂÁ_Ì_Á_Ë_8"/>
    <radialGradient id="_É_πÌÚ_·ÂÁ_Ì_Á_Ë_8-6" data-name="É‡‰¥πÌÚ ·ÂÁ Ì‡Á‚Ë 8" cy="-589.73" fy="-589.73" r="10.25" xlink:href="#_É_πÌÚ_·ÂÁ_Ì_Á_Ë_8"/>
    <radialGradient id="_É_πÌÚ_·ÂÁ_Ì_Á_Ë_8-7" data-name="É‡‰¥πÌÚ ·ÂÁ Ì‡Á‚Ë 8" cy="-539.42" fy="-539.42" xlink:href="#_É_πÌÚ_·ÂÁ_Ì_Á_Ë_8"/>
    <radialGradient id="_É_πÌÚ_·ÂÁ_Ì_Á_Ë_8-8" data-name="É‡‰¥πÌÚ ·ÂÁ Ì‡Á‚Ë 8" cy="-489.1" fy="-489.1" r="10.25" gradientTransform="translate(12.08 338.81) rotate(-17.77) scale(.51)" xlink:href="#_É_πÌÚ_·ÂÁ_Ì_Á_Ë_8"/>
    <radialGradient id="_É_πÌÚ_·ÂÁ_Ì_Á_Ë_8-9" data-name="É‡‰¥πÌÚ ·ÂÁ Ì‡Á‚Ë 8" cy="-438.79" fy="-438.79" r="10.25" xlink:href="#_É_πÌÚ_·ÂÁ_Ì_Á_Ë_8"/>
    <radialGradient id="_É_πÌÚ_·ÂÁ_Ì_Á_Ë_8-10" data-name="É‡‰¥πÌÚ ·ÂÁ Ì‡Á‚Ë 8" cy="-388.47" fy="-388.47" xlink:href="#_É_πÌÚ_·ÂÁ_Ì_Á_Ë_8"/>
    <radialGradient id="_É_πÌÚ_·ÂÁ_Ì_Á_Ë_8-11" data-name="É‡‰¥πÌÚ ·ÂÁ Ì‡Á‚Ë 8" cy="-338.16" fy="-338.16" r="10.25" gradientTransform="translate(66 264.91) rotate(-17.77) scale(.51)" xlink:href="#_É_πÌÚ_·ÂÁ_Ì_Á_Ë_8"/>
    <radialGradient id="_É_πÌÚ_·ÂÁ_Ì_Á_Ë_8-12" data-name="É‡‰¥πÌÚ ·ÂÁ Ì‡Á‚Ë 8" cy="-287.84" fy="-287.84" r="10.25" xlink:href="#_É_πÌÚ_·ÂÁ_Ì_Á_Ë_8"/>
    <radialGradient id="_É_πÌÚ_·ÂÁ_Ì_Á_Ë_8-13" data-name="É‡‰¥πÌÚ ·ÂÁ Ì‡Á‚Ë 8" cy="-237.52" fy="-237.52" r="10.25" xlink:href="#_É_πÌÚ_·ÂÁ_Ì_Á_Ë_8"/>
    <radialGradient id="_É_πÌÚ_·ÂÁ_Ì_Á_Ë_8-14" data-name="É‡‰¥πÌÚ ·ÂÁ Ì‡Á‚Ë 8" cy="-187.21" fy="-187.21" r="10.25" xlink:href="#_É_πÌÚ_·ÂÁ_Ì_Á_Ë_8"/>
    <radialGradient id="_É_πÌÚ_·ÂÁ_Ì_Á_Ë_8-15" data-name="É‡‰¥πÌÚ ·ÂÁ Ì‡Á‚Ë 8" cy="-136.89" fy="-136.89" xlink:href="#_É_πÌÚ_·ÂÁ_Ì_Á_Ë_8"/>
    <linearGradient id="linear-gradient" x1="628.8" y1="-116.35" x2="628.8" y2="-114.44" gradientTransform="translate(117.78 639.19) rotate(-90)" gradientUnits="userSpaceOnUse">
      <stop offset="0" stop-color="#484949"/>
      <stop offset=".09" stop-color="#646464"/>
      <stop offset=".11" stop-color="#5d5d5d"/>
      <stop offset=".18" stop-color="#515151"/>
      <stop offset=".24" stop-color="#4d4d4d"/>
      <stop offset=".28" stop-color="#5a5a5a"/>
      <stop offset=".34" stop-color="#7e7d7d"/>
      <stop offset=".43" stop-color="#b7b6b6"/>
      <stop offset=".49" stop-color="#dcdbdb"/>
      <stop offset=".51" stop-color="#ccc"/>
      <stop offset=".6" stop-color="#929393"/>
      <stop offset=".67" stop-color="#6e7070"/>
      <stop offset=".71" stop-color="#616363"/>
      <stop offset=".76" stop-color="#656767"/>
      <stop offset=".82" stop-color="#727372"/>
      <stop offset=".86" stop-color="#828281"/>
      <stop offset=".87" stop-color="#7f7f7e"/>
      <stop offset=".96" stop-color="#4a4c4b"/>
      <stop offset="1" stop-color="#363938"/>
    </linearGradient>
    <linearGradient id="linear-gradient-2" y1="-110.57" y2="-108.66" xlink:href="#linear-gradient"/>
    <linearGradient id="linear-gradient-3" y1="-90.49" y2="-88.57" xlink:href="#linear-gradient"/>
    <linearGradient id="linear-gradient-4" y1="-84.7" y2="-82.79" xlink:href="#linear-gradient"/>
    <linearGradient id="linear-gradient-5" y1="-64.62" y2="-62.7" xlink:href="#linear-gradient"/>
    <linearGradient id="linear-gradient-6" y1="-58.84" y2="-56.92" xlink:href="#linear-gradient"/>
    <linearGradient id="linear-gradient-7" y1="-38.75" y2="-36.84" xlink:href="#linear-gradient"/>
    <linearGradient id="linear-gradient-8" y1="-32.97" y2="-31.05" xlink:href="#linear-gradient"/>
    <linearGradient id="linear-gradient-9" y1="-12.89" y2="-10.97" xlink:href="#linear-gradient"/>
    <linearGradient id="linear-gradient-10" y1="-7.1" y2="-5.19" xlink:href="#linear-gradient"/>
    <linearGradient id="linear-gradient-11" y1="12.98" y2="14.9" xlink:href="#linear-gradient"/>
    <linearGradient id="linear-gradient-12" y1="18.77" y2="20.68" xlink:href="#linear-gradient"/>
    <linearGradient id="linear-gradient-13" y1="38.85" y2="40.77" xlink:href="#linear-gradient"/>
    <linearGradient id="linear-gradient-14" y1="44.63" y2="46.55" xlink:href="#linear-gradient"/>
    <linearGradient id="linear-gradient-15" y1="64.72" y2="66.63" xlink:href="#linear-gradient"/>
    <linearGradient id="linear-gradient-16" y1="70.5" y2="72.42" xlink:href="#linear-gradient"/>
    <linearGradient id="linear-gradient-17" y1="90.58" y2="92.5" xlink:href="#linear-gradient"/>
    <linearGradient id="linear-gradient-18" y1="96.37" y2="98.28" xlink:href="#linear-gradient"/>
    <linearGradient id="linear-gradient-19" y1="116.45" y2="118.37" xlink:href="#linear-gradient"/>
    <linearGradient id="linear-gradient-20" y1="122.24" y2="124.15" xlink:href="#linear-gradient"/>
    <linearGradient id="linear-gradient-21" y1="142.32" y2="144.23" xlink:href="#linear-gradient"/>
    <linearGradient id="linear-gradient-22" y1="148.1" y2="150.02" xlink:href="#linear-gradient"/>
    <linearGradient id="linear-gradient-23" y1="168.19" y2="170.1" xlink:href="#linear-gradient"/>
    <linearGradient id="linear-gradient-24" y1="173.97" y2="175.89" xlink:href="#linear-gradient"/>
    <linearGradient id="linear-gradient-25" y1="194.05" y2="195.97" xlink:href="#linear-gradient"/>
    <linearGradient id="linear-gradient-26" y1="199.84" y2="201.75" xlink:href="#linear-gradient"/>
    <linearGradient id="linear-gradient-27" y1="219.92" y2="221.84" xlink:href="#linear-gradient"/>
    <linearGradient id="linear-gradient-28" y1="225.71" y2="227.62" xlink:href="#linear-gradient"/>
    <linearGradient id="linear-gradient-29" y1="245.79" y2="247.7" xlink:href="#linear-gradient"/>
    <linearGradient id="linear-gradient-30" y1="251.57" y2="253.49" xlink:href="#linear-gradient"/>
    <radialGradient id="_É_πÌÚ_·ÂÁ_Ì_Á_Ë_8-16" data-name="É‡‰¥πÌÚ ·ÂÁ Ì‡Á‚Ë 8" cy="-90.04" fy="-90.04" r="10.25" xlink:href="#_É_πÌÚ_·ÂÁ_Ì_Á_Ë_8"/>
    <radialGradient id="_É_πÌÚ_·ÂÁ_Ì_Á_Ë_8-17" data-name="É‡‰¥πÌÚ ·ÂÁ Ì‡Á‚Ë 8" cy="-39.72" fy="-39.72" r="10.25" xlink:href="#_É_πÌÚ_·ÂÁ_Ì_Á_Ë_8"/>
    <radialGradient id="_É_πÌÚ_·ÂÁ_Ì_Á_Ë_8-18" data-name="É‡‰¥πÌÚ ·ÂÁ Ì‡Á‚Ë 8" cy="10.6" fy="10.6" r="10.25" gradientTransform="translate(190.58 94.17) rotate(-17.77) scale(.51)" xlink:href="#_É_πÌÚ_·ÂÁ_Ì_Á_Ë_8"/>
    <radialGradient id="_É_πÌÚ_·ÂÁ_Ì_Á_Ë_8-19" data-name="É‡‰¥πÌÚ ·ÂÁ Ì‡Á‚Ë 8" cy="60.91" fy="60.91" r="10.25" xlink:href="#_É_πÌÚ_·ÂÁ_Ì_Á_Ë_8"/>
    <radialGradient id="_É_πÌÚ_·ÂÁ_Ì_Á_Ë_8-20" data-name="É‡‰¥πÌÚ ·ÂÁ Ì‡Á‚Ë 8" cy="111.23" fy="111.23" r="10.25" xlink:href="#_É_πÌÚ_·ÂÁ_Ì_Á_Ë_8"/>
    <radialGradient id="_É_πÌÚ_·ÂÁ_Ì_Á_Ë_8-21" data-name="É‡‰¥πÌÚ ·ÂÁ Ì‡Á‚Ë 8" cy="161.54" fy="161.54" r="10.25" xlink:href="#_É_πÌÚ_·ÂÁ_Ì_Á_Ë_8"/>
    <radialGradient id="_É_πÌÚ_·ÂÁ_Ì_Á_Ë_8-22" data-name="É‡‰¥πÌÚ ·ÂÁ Ì‡Á‚Ë 8" cy="211.86" fy="211.86" r="10.25" xlink:href="#_É_πÌÚ_·ÂÁ_Ì_Á_Ë_8"/>
    <radialGradient id="_É_πÌÚ_·ÂÁ_Ì_Á_Ë_8-23" data-name="É‡‰¥πÌÚ ·ÂÁ Ì‡Á‚Ë 8" cy="262.17" fy="262.17" r="10.25" gradientTransform="translate(280.45 -29) rotate(-17.77) scale(.51)" xlink:href="#_É_πÌÚ_·ÂÁ_Ì_Á_Ë_8"/>
    <radialGradient id="_É_πÌÚ_·ÂÁ_Ì_Á_Ë_8-24" data-name="É‡‰¥πÌÚ ·ÂÁ Ì‡Á‚Ë 8" cy="312.49" fy="312.49" r="10.25" xlink:href="#_É_πÌÚ_·ÂÁ_Ì_Á_Ë_8"/>
    <radialGradient id="_É_πÌÚ_·ÂÁ_Ì_Á_Ë_8-25" data-name="É‡‰¥πÌÚ ·ÂÁ Ì‡Á‚Ë 8" cy="362.81" fy="362.81" r="10.25" xlink:href="#_É_πÌÚ_·ÂÁ_Ì_Á_Ë_8"/>
    <radialGradient id="_É_πÌÚ_·ÂÁ_Ì_Á_Ë_8-26" data-name="É‡‰¥πÌÚ ·ÂÁ Ì‡Á‚Ë 8" cy="413.12" fy="413.12" r="10.25" gradientTransform="translate(334.37 -102.9) rotate(-17.77) scale(.51)" xlink:href="#_É_πÌÚ_·ÂÁ_Ì_Á_Ë_8"/>
    <radialGradient id="_É_πÌÚ_·ÂÁ_Ì_Á_Ë_8-27" data-name="É‡‰¥πÌÚ ·ÂÁ Ì‡Á‚Ë 8" cy="463.44" fy="463.44" r="10.25" xlink:href="#_É_πÌÚ_·ÂÁ_Ì_Á_Ë_8"/>
    <radialGradient id="_É_πÌÚ_·ÂÁ_Ì_Á_Ë_8-28" data-name="É‡‰¥πÌÚ ·ÂÁ Ì‡Á‚Ë 8" cy="513.75" fy="513.75" r="10.25" xlink:href="#_É_πÌÚ_·ÂÁ_Ì_Á_Ë_8"/>
    <radialGradient id="_É_πÌÚ_·ÂÁ_Ì_Á_Ë_8-29" data-name="É‡‰¥πÌÚ ·ÂÁ Ì‡Á‚Ë 8" cy="564.07" fy="564.07" r="10.25" xlink:href="#_É_πÌÚ_·ÂÁ_Ì_Á_Ë_8"/>
    <radialGradient id="_É_πÌÚ_·ÂÁ_Ì_Á_Ë_8-30" data-name="É‡‰¥πÌÚ ·ÂÁ Ì‡Á‚Ë 8" cy="614.39" fy="614.39" r="10.25" xlink:href="#_É_πÌÚ_·ÂÁ_Ì_Á_Ë_8"/>
    <linearGradient id="linear-gradient-31" y1="269.88" y2="271.79" xlink:href="#linear-gradient"/>
    <linearGradient id="linear-gradient-32" y1="275.66" y2="277.58" xlink:href="#linear-gradient"/>
    <linearGradient id="linear-gradient-33" y1="295.75" y2="297.66" xlink:href="#linear-gradient"/>
    <linearGradient id="linear-gradient-34" y1="301.53" y2="303.44" xlink:href="#linear-gradient"/>
    <linearGradient id="linear-gradient-35" y1="321.61" y2="323.53" xlink:href="#linear-gradient"/>
    <linearGradient id="linear-gradient-36" y1="327.4" y2="329.31" xlink:href="#linear-gradient"/>
    <linearGradient id="linear-gradient-37" y1="347.48" y2="349.4" xlink:href="#linear-gradient"/>
    <linearGradient id="linear-gradient-38" y1="353.26" y2="355.18" xlink:href="#linear-gradient"/>
    <linearGradient id="linear-gradient-39" y1="373.35" y2="375.26" xlink:href="#linear-gradient"/>
    <linearGradient id="linear-gradient-40" y1="379.13" y2="381.05" xlink:href="#linear-gradient"/>
    <linearGradient id="linear-gradient-41" y1="399.22" y2="401.13" xlink:href="#linear-gradient"/>
    <linearGradient id="linear-gradient-42" y1="405" y2="406.91" xlink:href="#linear-gradient"/>
    <linearGradient id="linear-gradient-43" y1="425.08" y2="427" xlink:href="#linear-gradient"/>
    <linearGradient id="linear-gradient-44" y1="430.87" y2="432.78" xlink:href="#linear-gradient"/>
    <linearGradient id="linear-gradient-45" y1="450.95" y2="452.87" xlink:href="#linear-gradient"/>
    <linearGradient id="linear-gradient-46" y1="456.73" y2="458.65" xlink:href="#linear-gradient"/>
    <linearGradient id="linear-gradient-47" y1="476.82" y2="478.73" xlink:href="#linear-gradient"/>
    <linearGradient id="linear-gradient-48" y1="482.6" y2="484.52" xlink:href="#linear-gradient"/>
    <linearGradient id="linear-gradient-49" y1="502.69" y2="504.6" xlink:href="#linear-gradient"/>
    <linearGradient id="linear-gradient-50" y1="508.47" y2="510.38" xlink:href="#linear-gradient"/>
    <linearGradient id="linear-gradient-51" y1="528.55" y2="530.47" xlink:href="#linear-gradient"/>
    <linearGradient id="linear-gradient-52" y1="534.34" y2="536.25" xlink:href="#linear-gradient"/>
    <linearGradient id="linear-gradient-53" y1="554.42" y2="556.34" xlink:href="#linear-gradient"/>
    <linearGradient id="linear-gradient-54" y1="560.2" y2="562.12" xlink:href="#linear-gradient"/>
    <linearGradient id="linear-gradient-55" y1="580.29" y2="582.2" xlink:href="#linear-gradient"/>
    <linearGradient id="linear-gradient-56" y1="586.07" y2="587.99" xlink:href="#linear-gradient"/>
    <linearGradient id="linear-gradient-57" y1="606.16" y2="608.07" xlink:href="#linear-gradient"/>
    <linearGradient id="linear-gradient-58" y1="611.94" y2="613.85" xlink:href="#linear-gradient"/>
    <linearGradient id="linear-gradient-59" y1="632.02" y2="633.94" xlink:href="#linear-gradient"/>
    <linearGradient id="linear-gradient-60" y1="637.81" y2="639.72" xlink:href="#linear-gradient"/>
  </defs>
  <g>
    <g>
      <circle class="cls-1" cx="5.27" cy="18.92" r="5.27"/>
      <circle class="cls-68" cx="31.14" cy="18.92" r="5.27"/>
      <circle class="cls-66" cx="57.01" cy="18.92" r="5.27" transform="translate(21.59 67.43) rotate(-72.23)"/>
      <circle class="cls-67" cx="82.87" cy="18.92" r="5.27"/>
      <circle class="cls-64" cx="108.74" cy="18.92" r="5.27"/>
      <circle class="cls-65" cx="134.61" cy="18.92" r="5.27"/>
      <circle class="cls-63" cx="160.48" cy="18.92" r="5.27"/>
      <circle class="cls-62" cx="186.34" cy="18.92" r="5.27" transform="translate(111.46 190.6) rotate(-72.23)"/>
      <circle class="cls-69" cx="212.21" cy="18.92" r="5.27"/>
      <circle class="cls-71" cx="238.08" cy="18.92" r="5.27"/>
      <circle class="cls-76" cx="263.95" cy="18.92" r="5.27" transform="translate(165.37 264.5) rotate(-72.23)"/>
      <circle class="cls-73" cx="289.81" cy="18.92" r="5.27"/>
      <circle class="cls-74" cx="315.68" cy="18.92" r="5.27"/>
      <circle class="cls-75" cx="341.55" cy="18.92" r="5.27"/>
      <circle class="cls-79" cx="367.42" cy="18.92" r="5.27"/>
    </g>
    <g>
      <path class="cls-10" d="M1.42.96v19.83l1.92-1.92V.96c0-.53-.43-.96-.96-.96s-.96.43-.96.96Z"/>
      <path class="cls-9" d="M7.21.96v17.91l1.92,1.92V.96c0-.53-.43-.96-.96-.96s-.96.43-.96.96Z"/>
    </g>
    <g>
      <path class="cls-8" d="M27.29.96v19.83l1.92-1.92V.96c0-.53-.43-.96-.96-.96s-.96.43-.96.96Z"/>
      <path class="cls-7" d="M33.07.96v17.91l1.92,1.92V.96c0-.53-.43-.96-.96-.96s-.96.43-.96.96Z"/>
    </g>
    <g>
      <path class="cls-4" d="M53.16.96v19.83l1.92-1.92V.96c0-.53-.43-.96-.96-.96s-.96.43-.96.96Z"/>
      <path class="cls-5" d="M58.94.96v17.91l1.92,1.92V.96c0-.53-.43-.96-.96-.96s-.96.43-.96.96Z"/>
    </g>
    <g>
      <path class="cls-3" d="M79.02.96v19.83l1.92-1.92V.96c0-.53-.43-.96-.96-.96s-.96.43-.96.96Z"/>
      <path class="cls-2" d="M84.81.96v17.91l1.92,1.92V.96c0-.53-.43-.96-.96-.96s-.96.43-.96.96Z"/>
    </g>
    <g>
      <path class="cls-6" d="M104.89.96v19.83l1.92-1.92V.96c0-.53-.43-.96-.96-.96s-.96.43-.96.96Z"/>
      <path class="cls-21" d="M110.67.96v17.91l1.92,1.92V.96c0-.53-.43-.96-.96-.96s-.96.43-.96.96Z"/>
    </g>
    <g>
      <path class="cls-22" d="M130.76.96v19.83l1.92-1.92V.96c0-.53-.43-.96-.96-.96s-.96.43-.96.96Z"/>
      <path class="cls-23" d="M136.54.96v17.91l1.92,1.92V.96c0-.53-.43-.96-.96-.96s-.96.43-.96.96Z"/>
    </g>
    <g>
      <path class="cls-24" d="M156.63.96v19.83l1.92-1.92V.96c0-.53-.43-.96-.96-.96s-.96.43-.96.96Z"/>
      <path class="cls-26" d="M162.41.96v17.91l1.92,1.92V.96c0-.53-.43-.96-.96-.96s-.96.43-.96.96Z"/>
    </g>
    <g>
      <path class="cls-37" d="M182.49.96v19.83l1.92-1.92V.96c0-.53-.43-.96-.96-.96s-.96.43-.96.96Z"/>
      <path class="cls-38" d="M188.28.96v17.91l1.92,1.92V.96c0-.53-.43-.96-.96-.96s-.96.43-.96.96Z"/>
    </g>
    <g>
      <path class="cls-39" d="M208.36.96v19.83l1.92-1.92V.96c0-.53-.43-.96-.96-.96s-.96.43-.96.96Z"/>
      <path class="cls-40" d="M214.14.96v17.91l1.92,1.92V.96c0-.53-.43-.96-.96-.96s-.96.43-.96.96Z"/>
    </g>
    <g>
      <path class="cls-25" d="M234.23.96v19.83l1.92-1.92V.96c0-.53-.43-.96-.96-.96s-.96.43-.96.96Z"/>
      <path class="cls-28" d="M240.01.96v17.91l1.92,1.92V.96c0-.53-.43-.96-.96-.96s-.96.43-.96.96Z"/>
    </g>
    <g>
      <path class="cls-27" d="M260.1.96v19.83l1.92-1.92V.96c0-.53-.43-.96-.96-.96s-.96.43-.96.96Z"/>
      <path class="cls-29" d="M265.88.96v17.91l1.92,1.92V.96c0-.53-.43-.96-.96-.96s-.96.43-.96.96Z"/>
    </g>
    <g>
      <path class="cls-30" d="M285.96.96v19.83l1.92-1.92V.96c0-.53-.43-.96-.96-.96s-.96.43-.96.96Z"/>
      <path class="cls-46" d="M291.75.96v17.91l1.92,1.92V.96c0-.53-.43-.96-.96-.96s-.96.43-.96.96Z"/>
    </g>
    <g>
      <path class="cls-32" d="M311.83.96v19.83l1.92-1.92V.96c0-.53-.43-.96-.96-.96s-.96.43-.96.96Z"/>
      <path class="cls-47" d="M317.61.96v17.91l1.92,1.92V.96c0-.53-.43-.96-.96-.96s-.96.43-.96.96Z"/>
    </g>
    <g>
      <path class="cls-45" d="M337.7.96v19.83l1.92-1.92V.96c0-.53-.43-.96-.96-.96s-.96.43-.96.96Z"/>
      <path class="cls-31" d="M343.48.96v17.91l1.92,1.92V.96c0-.53-.43-.96-.96-.96s-.96.43-.96.96Z"/>
    </g>
    <g>
      <path class="cls-48" d="M363.57.96v19.83l1.92-1.92V.96c0-.53-.43-.96-.96-.96s-.96.43-.96.96Z"/>
      <path class="cls-36" d="M369.35.96v17.91l1.92,1.92V.96c0-.53-.43-.96-.96-.96s-.96.43-.96.96Z"/>
    </g>
  </g>
  <g>
    <g>
      <circle class="cls-80" cx="391.5" cy="18.92" r="5.27"/>
      <circle class="cls-77" cx="417.37" cy="18.92" r="5.27"/>
      <circle class="cls-78" cx="443.24" cy="18.92" r="5.27" transform="translate(289.95 435.24) rotate(-72.23)"/>
      <circle class="cls-72" cx="469.11" cy="18.92" r="5.27"/>
      <circle class="cls-81" cx="494.97" cy="18.92" r="5.27"/>
      <circle class="cls-85" cx="520.84" cy="18.92" r="5.27"/>
      <circle class="cls-86" cx="546.71" cy="18.92" r="5.27"/>
      <circle class="cls-83" cx="572.58" cy="18.92" r="5.27" transform="translate(379.82 558.41) rotate(-72.23)"/>
      <circle class="cls-84" cx="598.44" cy="18.92" r="5.27"/>
      <circle class="cls-89" cx="624.31" cy="18.92" r="5.27"/>
      <circle class="cls-90" cx="650.18" cy="18.92" r="5.27" transform="translate(433.74 632.31) rotate(-72.23)"/>
      <circle class="cls-87" cx="676.05" cy="18.92" r="5.27"/>
      <circle class="cls-88" cx="701.91" cy="18.92" r="5.27"/>
      <circle class="cls-82" cx="727.78" cy="18.92" r="5.27"/>
      <circle class="cls-70" cx="753.65" cy="18.92" r="5.27"/>
    </g>
    <g>
      <path class="cls-34" d="M387.65.96v19.83l1.92-1.92V.96c0-.53-.43-.96-.96-.96s-.96.43-.96.96Z"/>
      <path class="cls-33" d="M393.44.96v17.91l1.92,1.92V.96c0-.53-.43-.96-.96-.96s-.96.43-.96.96Z"/>
    </g>
    <g>
      <path class="cls-35" d="M413.52.96v19.83l1.92-1.92V.96c0-.53-.43-.96-.96-.96s-.96.43-.96.96Z"/>
      <path class="cls-42" d="M419.31.96v17.91l1.92,1.92V.96c0-.53-.43-.96-.96-.96s-.96.43-.96.96Z"/>
    </g>
    <g>
      <path class="cls-41" d="M439.39.96v19.83l1.92-1.92V.96c0-.53-.43-.96-.96-.96s-.96.43-.96.96Z"/>
      <path class="cls-43" d="M445.17.96v17.91l1.92,1.92V.96c0-.53-.43-.96-.96-.96s-.96.43-.96.96Z"/>
    </g>
    <g>
      <path class="cls-49" d="M465.26.96v19.83l1.92-1.92V.96c0-.53-.43-.96-.96-.96s-.96.43-.96.96Z"/>
      <path class="cls-44" d="M471.04.96v17.91l1.92,1.92V.96c0-.53-.43-.96-.96-.96s-.96.43-.96.96Z"/>
    </g>
    <g>
      <path class="cls-50" d="M491.12.96v19.83l1.92-1.92V.96c0-.53-.43-.96-.96-.96s-.96.43-.96.96Z"/>
      <path class="cls-12" d="M496.91.96v17.91l1.92,1.92V.96c0-.53-.43-.96-.96-.96s-.96.43-.96.96Z"/>
    </g>
    <g>
      <path class="cls-13" d="M516.99.96v19.83l1.92-1.92V.96c0-.53-.43-.96-.96-.96s-.96.43-.96.96Z"/>
      <path class="cls-14" d="M522.78.96v17.91l1.92,1.92V.96c0-.53-.43-.96-.96-.96s-.96.43-.96.96Z"/>
    </g>
    <g>
      <path class="cls-11" d="M542.86.96v19.83l1.92-1.92V.96c0-.53-.43-.96-.96-.96s-.96.43-.96.96Z"/>
      <path class="cls-19" d="M548.64.96v17.91l1.92,1.92V.96c0-.53-.43-.96-.96-.96s-.96.43-.96.96Z"/>
    </g>
    <g>
      <path class="cls-17" d="M568.73.96v19.83l1.92-1.92V.96c0-.53-.43-.96-.96-.96s-.96.43-.96.96Z"/>
      <path class="cls-20" d="M574.51.96v17.91l1.92,1.92V.96c0-.53-.43-.96-.96-.96s-.96.43-.96.96Z"/>
    </g>
    <g>
      <path class="cls-18" d="M594.59.96v19.83l1.92-1.92V.96c0-.53-.43-.96-.96-.96s-.96.43-.96.96Z"/>
      <path class="cls-16" d="M600.38.96v17.91l1.92,1.92V.96c0-.53-.43-.96-.96-.96s-.96.43-.96.96Z"/>
    </g>
    <g>
      <path class="cls-15" d="M620.46.96v19.83l1.92-1.92V.96c0-.53-.43-.96-.96-.96s-.96.43-.96.96Z"/>
      <path class="cls-58" d="M626.25.96v17.91l1.92,1.92V.96c0-.53-.43-.96-.96-.96s-.96.43-.96.96Z"/>
    </g>
    <g>
      <path class="cls-59" d="M646.33.96v19.83l1.92-1.92V.96c0-.53-.43-.96-.96-.96s-.96.43-.96.96Z"/>
      <path class="cls-60" d="M652.11.96v17.91l1.92,1.92V.96c0-.53-.43-.96-.96-.96s-.96.43-.96.96Z"/>
    </g>
    <g>
      <path class="cls-54" d="M672.2.96v19.83l1.92-1.92V.96c0-.53-.43-.96-.96-.96s-.96.43-.96.96Z"/>
      <path class="cls-55" d="M677.98.96v17.91l1.92,1.92V.96c0-.53-.43-.96-.96-.96s-.96.43-.96.96Z"/>
    </g>
    <g>
      <path class="cls-56" d="M698.06.96v19.83l1.92-1.92V.96c0-.53-.43-.96-.96-.96s-.96.43-.96.96Z"/>
      <path class="cls-57" d="M703.85.96v17.91l1.92,1.92V.96c0-.53-.43-.96-.96-.96s-.96.43-.96.96Z"/>
    </g>
    <g>
      <path class="cls-51" d="M723.93.96v19.83l1.92-1.92V.96c0-.53-.43-.96-.96-.96s-.96.43-.96.96Z"/>
      <path class="cls-52" d="M729.71.96v17.91l1.92,1.92V.96c0-.53-.43-.96-.96-.96s-.96.43-.96.96Z"/>
    </g>
    <g>
      <path class="cls-53" d="M749.8.96v19.83l1.92-1.92V.96c0-.53-.43-.96-.96-.96s-.96.43-.96.96Z"/>
      <path class="cls-61" d="M755.58.96v17.91l1.92,1.92V.96c0-.53-.43-.96-.96-.96s-.96.43-.96.96Z"/>
    </g>
  </g>
</svg>